<?xml version="1.0" encoding="UTF-8"?>
<svg id="Layer_1" xmlns="http://www.w3.org/2000/svg" version="1.1" viewBox="0 0 24 24">
  <!-- Generator: Adobe Illustrator 29.5.1, SVG Export Plug-In . SVG Version: 2.1.0 Build 141)  -->
  <defs>
    <style>
      .st0 {
        fill: #31ceee;
      }
    </style>
  </defs>
  <path class="st0" d="M12,2.16c3.2,0,3.58,0,4.85.07,3.25.15,4.77,1.69,4.92,4.92.06,1.27.07,1.65.07,4.85s-.01,3.58-.07,4.85c-.15,3.23-1.66,4.77-4.92,4.92-1.27.06-1.64.07-4.85.07s-3.58-.01-4.85-.07c-3.26-.15-4.77-1.7-4.92-4.92-.06-1.27-.07-1.64-.07-4.85s0-3.58.07-4.85c.15-3.23,1.66-4.77,4.92-4.92,1.27-.06,1.64-.07,4.85-.07ZM12,0c-3.26,0-3.67,0-4.95.07C2.7.27.27,2.69.07,7.05c-.06,1.28-.07,1.69-.07,4.95s0,3.67.07,4.95c.2,4.36,2.62,6.78,6.98,6.98,1.28.06,1.69.07,4.95.07s3.67-.01,4.95-.07c4.35-.2,6.78-2.62,6.98-6.98.06-1.28.07-1.69.07-4.95s-.01-3.67-.07-4.95c-.2-4.35-2.62-6.78-6.98-6.98C15.67.01,15.26,0,12,0ZM12,5.84c-3.4,0-6.16,2.76-6.16,6.16s2.76,6.16,6.16,6.16,6.16-2.76,6.16-6.16-2.76-6.16-6.16-6.16ZM12,16c-2.21,0-4-1.79-4-4s1.79-4,4-4,4,1.79,4,4-1.79,4-4,4ZM18.41,4.15c-.8,0-1.44.64-1.44,1.44s.65,1.44,1.44,1.44,1.44-.64,1.44-1.44-.64-1.44-1.44-1.44Z"/>
</svg>