<?xml version="1.0" encoding="UTF-8"?>
<svg id="Layer_1" xmlns="http://www.w3.org/2000/svg" version="1.1" viewBox="0 0 24 24">
  <!-- Generator: Adobe Illustrator 29.5.1, SVG Export Plug-In . SVG Version: 2.1.0 Build 141)  -->
  <defs>
    <style>
      .st0 {
        fill: #010000;
      }
    </style>
  </defs>
  <path class="st0" d="M22,16.75c0-.41-.34-.75-.75-.75H2.75c-.41,0-.75.34-.75.75s.34.75.75.75h18.5c.41,0,.75-.34.75-.75ZM22,11.75c0-.41-.34-.75-.75-.75H2.75c-.41,0-.75.34-.75.75s.34.75.75.75h18.5c.41,0,.75-.34.75-.75ZM22,6.75c0-.41-.34-.75-.75-.75H2.75c-.41,0-.75.34-.75.75s.34.75.75.75h18.5c.41,0,.75-.34.75-.75Z"/>
</svg>