<?xml version="1.0" encoding="UTF-8"?>
<svg id="Layer_1" xmlns="http://www.w3.org/2000/svg" version="1.1" viewBox="0 0 24 24">
  <!-- Generator: Adobe Illustrator 29.5.1, SVG Export Plug-In . SVG Version: 2.1.0 Build 141)  -->
  <defs>
    <style>
      .st0 {
        fill: #fff;
      }
    </style>
  </defs>
  <path class="st0" d="M20,7h-4v-3c0-2.21-1.79-4-4-4s-4,1.79-4,4v3h-4l-2,17h20l-2-17ZM9,4c0-1.65,1.35-3,3-3s3,1.35,3,3v3h-6v-3ZM4.25,22l1.53-13h2.22v1.5c0,.28.22.5.5.5s.5-.22.5-.5v-1.5h6v1.5c0,.28.22.5.5.5s.5-.22.5-.5v-1.5h2.22l1.53,13s-15.5,0-15.5,0Z"/>
</svg>