<?xml version="1.0" encoding="UTF-8"?>
<svg id="Layer_1" xmlns="http://www.w3.org/2000/svg" version="1.1" viewBox="0 0 960 960">
  <!-- Generator: Adobe Illustrator 29.5.1, SVG Export Plug-In . SVG Version: 2.1.0 Build 141)  -->
  <defs>
    <style>
      .st0 {
        fill: #010000;
      }
    </style>
  </defs>
  <path class="st0" d="M719.71,1.16v119.85c0,.13-1.6,1.72-1.72,1.72h-90.04l3.44,14.34c13.55,38.92,24.41,76.75,36.71,115.84,7.78,24.78,16.29,49.65,24.09,74.55,8.03,25.63,16.11,50.3,24.09,75.7,20.23,64.41,39.76,126.09,59.65,190.4l2.87,4.02h58.5c.13,0,1.72,1.6,1.72,1.72v119.28c0,.13-1.6,1.72-1.72,1.72h-324.59c-.21,0-2.87-2.66-2.87-2.87v-118.13c0-.13,1.6-1.72,1.72-1.72h90.04l-34.41-122.72h-184.65l-37.85,122.72h75.12c.13,0,1.72,1.6,1.72,1.72v118.13c0,.37-2.35,2.1-2.87,2.87H123.87l-2.87-2.87v-116.98l1.15-2.87h88.31L349.24,122.73h-107.81V1.73c0-1.86,0-1.72,1.72-1.72h473.69c2.8,0,2.87-.14,2.87,1.15ZM480,157.13c-1.79-.55-1.8.2-2.3,1.72-4.25,13.04-7.65,25.97-11.47,38.99-4.36,14.86-10.21,30.76-13.77,45.88-1.61,6.85-4.7,15.44-6.88,22.94-7.88,26.99-17.34,55.18-25.24,82.59-1.46,5.05-2.02,10.57-3.44,14.91-.15.46-1,.69-1.15,1.15-.55,1.73.4,3,1.72,4.02,1.23.33,1.66-.96,3.44-1.15,35.32-3.59,76.47,2.69,112.4,0l1.15,1.15,2.87-1.72-57.35-210.46h0Z"/>
  <path class="st0" d="M122.15,838.42h715.12c.13,0,1.72,1.6,1.72,1.72v118.13c0,.13-1.6,1.72-1.72,1.72H125.02c-.24,0-3.87-2.32-4.02-2.87v-115.84l1.15-2.87Z"/>
</svg>