<?xml version="1.0" encoding="UTF-8"?>
<svg id="Layer_1" xmlns="http://www.w3.org/2000/svg" version="1.1" viewBox="0 0 500 500">
  <!-- Generator: Adobe Illustrator 29.5.1, SVG Export Plug-In . SVG Version: 2.1.0 Build 141)  -->
  <defs>
    <style>
      .st0 {
        fill: #31ceee;
      }
    </style>
  </defs>
  <polygon class="st0" points="247.69 152.18 268.75 222.18 227.61 222.18 247.69 152.18"/>
  <path class="st0" d="M250,1.61C112.82,1.61,1.61,112.82,1.61,250s111.21,248.39,248.39,248.39,248.39-111.21,248.39-248.39S387.18,1.61,250,1.61ZM361.93,402.22h-223.86v-37.57h223.86v37.57ZM361.93,333.55h-101.31v-37.57h30.33l-12.69-42.18h-59.72l-12.11,42.18h24.33v37.57h-91.76v-37.57h26.2l-.03-.31,48.65-155.19h-37.87v-36.64h148.72v36.64h-31.3l52.03,155.5h16.53v37.57Z"/>
</svg>